<svg xmlns="http://www.w3.org/2000/svg" width="22.707" height="19.012" viewBox="0 0 22.707 19.012">
  <path id="hamburger-menu-svgrepo-com" d="M1.873,3A.978.978,0,0,0,1,4.056a.978.978,0,0,0,.873,1.056h20.96a.978.978,0,0,0,.873-1.056A.978.978,0,0,0,22.833,3ZM1,12.506a.978.978,0,0,1,.873-1.056h20.96a.978.978,0,0,1,.873,1.056.978.978,0,0,1-.873,1.056H1.873A.978.978,0,0,1,1,12.506Zm0,8.45A.978.978,0,0,1,1.873,19.9h20.96a1.075,1.075,0,0,1,0,2.112H1.873A.978.978,0,0,1,1,20.956Z" transform="translate(-1 -3)" fill="#4c8930" fill-rule="evenodd"/>
</svg>
