<svg id="linkedin-svgrepo-com" xmlns="http://www.w3.org/2000/svg" width="35" height="35" viewBox="0 0 35 35">
  <path id="Path_6" data-name="Path 6" d="M17.5,0A17.5,17.5,0,1,1,0,17.5,17.5,17.5,0,0,1,17.5,0Z" fill="#4c8930"/>
  <path id="Path_7" data-name="Path 7" d="M81.952,89.772h3.63v-12.1h-3.63ZM96.094,77.255a5.448,5.448,0,0,0-4.456,2.063V77.634H87.994V89.772h3.643V83.208A2.882,2.882,0,0,1,94.5,80.468c1.592,0,1.985,1.353,1.985,2.707v6.6h3.63V82.9C100.115,78.134,97.856,77.255,96.094,77.255Zm-12.343-.79a1.817,1.817,0,1,0-1.817-1.817A1.818,1.818,0,0,0,83.75,76.465Z" transform="translate(-73.026 -64.811)" fill="#fff"/>
</svg>
