<svg xmlns="http://www.w3.org/2000/svg" width="22.374" height="22.608" viewBox="0 0 22.374 22.608">
  <g id="search-magnifier-outline-svgrepo-com" transform="translate(-3.068)">
    <g id="Group_1" data-name="Group 1" transform="translate(3.068 0)">
      <path id="Path_1" data-name="Path 1" d="M20.292,13.739a8.911,8.911,0,1,0-4.332,3.9q.277-.117.543-.252l5,5a2.344,2.344,0,0,0,3.315,0l.4-.4a2.347,2.347,0,0,0,0-3.315Zm-3.539,1.586a7.31,7.31,0,1,1,1.439-1.375A7.274,7.274,0,0,1,16.753,15.325Zm7.309,5.5-.4.4a.71.71,0,0,1-1,0l-4.735-4.735a8.994,8.994,0,0,0,.873-.767q.3-.3.56-.614l4.708,4.708A.71.71,0,0,1,24.063,20.825Z" transform="translate(-3.549 -0.481)" fill="#4c8930"/>
      <path id="Path_2" data-name="Path 2" d="M22.677,22.608a2.348,2.348,0,0,1-1.671-.692l-4.988-4.988c-.177.089-.356.172-.532.246A8.94,8.94,0,0,1,8.527.7,8.942,8.942,0,0,1,20.242,12.418a9,9,0,0,1-.407.837l4.916,4.916a2.366,2.366,0,0,1,0,3.342l-.4.4A2.347,2.347,0,0,1,22.677,22.608Zm-6.651-5.726,5.007,5.007a2.325,2.325,0,0,0,3.288,0l.4-.4a2.327,2.327,0,0,0,0-3.288l-4.936-4.936.007-.013a8.955,8.955,0,0,0,.412-.846,8.894,8.894,0,1,0-4.735,4.735c.179-.076.361-.16.542-.251Zm6.651,4.092a.724.724,0,0,1-.515-.214l-4.75-4.75L17.429,16a9.017,9.017,0,0,0,.871-.765c.194-.194.382-.4.559-.613l.013-.016L23.6,19.326a.73.73,0,0,1,0,1.031l-.4.4A.724.724,0,0,1,22.677,20.974Zm-5.208-4.96,4.719,4.719a.691.691,0,0,0,.977,0l.4-.4a.692.692,0,0,0,0-.977L18.874,14.66c-.174.208-.358.409-.548.6A9.054,9.054,0,0,1,17.469,16.014Zm-5.463.229A7.276,7.276,0,1,1,14.8,15.69,7.313,7.313,0,0,1,12.006,16.243Zm0-14.571A7.263,7.263,0,1,0,18.58,12.037a7.2,7.2,0,0,0,.692-3.1A7.275,7.275,0,0,0,12.006,1.672Z" transform="translate(-3.068 0)" fill="#4c8930"/>
    </g>
  </g>
</svg>
