<svg xmlns="http://www.w3.org/2000/svg" width="35.538" height="35.538" viewBox="0 0 35.538 35.538">
  <g id="twitter-svgrepo-com" transform="translate(-0.001)">
    <circle id="Ellipse_1" data-name="Ellipse 1" cx="17.769" cy="17.769" r="17.769" transform="translate(0.001 0)" fill="#4c8930"/>
    <g id="Group_1" data-name="Group 1" transform="translate(7.952 10.778)">
      <path id="Path_3" data-name="Path 3" d="M45.8,36.02a8.474,8.474,0,0,1-2.44.668,4.259,4.259,0,0,0,1.868-2.349,8.5,8.5,0,0,1-2.7,1.03A4.251,4.251,0,0,0,35.3,39.243,12.057,12.057,0,0,1,26.544,34.8a4.252,4.252,0,0,0,1.314,5.671,4.217,4.217,0,0,1-1.924-.532c0,.018,0,.036,0,.054a4.25,4.25,0,0,0,3.407,4.164,4.264,4.264,0,0,1-1.918.073,4.252,4.252,0,0,0,3.968,2.95A8.574,8.574,0,0,1,25.1,48.944,12.078,12.078,0,0,0,43.7,38.767c0-.184,0-.367-.012-.549a8.613,8.613,0,0,0,2.12-2.2Z" transform="translate(-25.103 -34.028)" fill="#f1f2f2"/>
    </g>
  </g>
</svg>
